<svg width="60" height="60" xmlns="http://www.w3.org/2000/svg">
 <title/>
 <desc/>

 <g>
  <title>background</title>
  <rect fill="none" id="canvas_background" height="402" width="582" y="-1" x="-1"/>
 </g>
 <g>
  <title>Layer 1</title>
  <path fill="#f50f0f" id="thumb-up" d="m6,52c0,1.103001 0.897,2 2,2c1.103,0 2,-0.896999 2,-2c0,-1.103001 -0.897,-2 -2,-2c-1.103,0 -2,0.896999 -2,2m53.706001,-21.739l-5.488003,21.986002c-0.872997,3.494999 -3.313999,5.752998 -6.217999,5.752998l-15,0c-2.766001,0 -4.662001,-1.084 -6.496,-2.132c-1.681,-0.960999 -3.27,-1.868 -5.504,-1.868l-2,0c-0.552,0 -1,-0.446999 -1,-1c0,-0.553001 0.448,-1 1,-1l2,0c2.766001,0 4.662001,1.084 6.496,2.132c1.681,0.960999 3.27,1.868 5.504,1.868l15,0c2.375999,0 3.790001,-2.283001 4.278,-4.237l5.492001,-22.005001c0.357998,-1.328999 0.310001,-2.289999 -0.139,-2.875999c-0.557999,-0.729 -1.739002,-0.882 -2.631001,-0.882l-14,0c-1.139999,0 -2.167999,-0.375999 -3,-0.995001l0,3.995001c0,5.047001 -3.952999,9 -9,9c-0.552,0 -1,-0.446999 -1,-1c0,-0.553001 0.448,-1 1,-1c3.924999,0 7,-3.075001 7,-7l0,-20c0,-4.448 -2.550999,-7 -7,-7c-1.625999,0 -3,1.374 -3,3l0,10c0,5.83 -4.318001,10.466999 -10,10.957001l0,33.042999c0,0.553001 -0.448,1 -1,1l-14,0c-0.552,0 -1,-0.446999 -1,-1l0,-38c0,-0.552999 0.448,-1 1,-1l14,0c0.552,0 1,0.447001 1,1c0,0.552999 -0.448,1 -1,1l-13,0l0,36l12,0l0,-33c0,-0.552999 0.448,-1 1,-1c5.047001,0 9,-3.952999 9,-9l0,-10c0,-2.757 2.243,-5 5,-5c5.550999,0 9,3.448 9,9l0,12c0,1.683001 1.318001,3 3,3l14,0c1.924999,0 3.383999,0.576 4.217999,1.665001c0.847,1.105999 1.011002,2.651999 0.488003,4.595999"/>
 </g>
</svg>