<svg width="32" height="32" xmlns="http://www.w3.org/2000/svg">
 <title/>
 <desc/>

 <g>
  <title>background</title>
  <rect fill="none" id="canvas_background" height="402" width="582" y="-1" x="-1"/>
 </g>
 <g>
  <title>Layer 1</title>
  <path fill="#f50f0f" id="certificate" d="m13,19.94949l0,2.05051l12.99754,0c0.55364,0 1.00246,-0.448919 1.00246,-1.007481l0,-12.98504c0,-0.55641 -0.439461,-1.00748 -1.00246,-1.00748l-19.99508,0c-0.55364,0 -1.00246,0.44892 -1.00246,1.00748l0,12.98504c0,0.55641 0.43946,1.007481 1.00246,1.007481l1.99754,0l0,-2.05051c-0.61859,-0.631269 -1,-1.49584 -1,-2.44949c0,-1.933 1.567,-3.5 3.5,-3.5c1.933,0 3.5,1.567 3.5,3.5c0,0.95365 -0.38141,1.81822 -1,2.44949l0,0l0,0zm-4,0.713701l0,3.936789l1.5,-1.499969l1.5,1.499969l0,-3.936789c-0.45463,0.21596 -0.9632,0.336809 -1.5,0.336809c-0.5368,0 -1.04537,-0.12085 -1.5,-0.336809l0,0l0,0zm-1,2.336809l-1.99505,0c-1.10792,0 -2.00495,-0.895479 -2.00495,-2.000111l0,-12.99978c0,-1.11005 0.89764,-2.00011 2.00495,-2.00011l19.9901,0c1.10792,0 2.00495,0.89548 2.00495,2.00011l0,12.99978c0,1.11005 -0.89765,2.000111 -2.00495,2.000111l-12.99505,0l0,4l-2.5,-2.5l-2.5,2.5l0,-4l0,0zm-1,-12l0,1l18,0l0,-1l-18,0l0,0zm9,3l0,1l9,0l0,-1l-9,0l0,0zm3,3l0,1l6,0l0,-1l-6,0l0,0zm-8.5,3c1.38071,0 2.5,-1.119289 2.5,-2.5c0,-1.380711 -1.11929,-2.5 -2.5,-2.5c-1.38071,0 -2.5,1.119289 -2.5,2.5c0,1.380711 1.11929,2.5 2.5,2.5l0,0z"/>
 </g>
</svg>