<svg width="32" height="32" xmlns="http://www.w3.org/2000/svg">

 <g>
  <title>background</title>
  <rect fill="none" id="canvas_background" height="402" width="582" y="-1" x="-1"/>
 </g>
 <g>
  <title>Layer 1</title>
  <path id="svg_4" fill="#ffffff" d="m25,27l-17,0c-0.133,0 -0.26,-0.052999 -0.354,-0.146l-1.5,-1.5c-0.093,-0.094 -0.146,-0.221001 -0.146,-0.354l0,-15.5c0,-0.277 0.224,-0.5 0.5,-0.5s0.5,0.223 0.5,0.5l0,15.292999l1.207,1.207001l16.585999,0l1.207001,-1.207001l0,-16.585999l-1.207001,-1.207l-16.585999,0l-0.916,0.915c-0.195,0.195 -0.512,0.195 -0.707,0c-0.195,-0.194 -0.195,-0.511 0,-0.706l1.063,-1.063c0.093,-0.093 0.22,-0.146 0.353,-0.146l17,0c0.132999,0 0.26,0.053 0.354,0.146l1.5,1.5c0.093,0.094 0.146,0.221 0.146,0.354l0,17c0,0.132999 -0.052999,0.26 -0.146,0.354l-1.5,1.5c-0.094,0.093 -0.221001,0.146 -0.354,0.146z"/>
  <path id="svg_7" fill="#ffffff" d="m4.5,24l-2,0c-0.276,0 -0.5,0.224001 -0.5,0.5s0.224,0.5 0.5,0.5l2,0c0.276,0 0.5,-0.224001 0.5,-0.5s-0.224,-0.5 -0.5,-0.5z"/>
  <path id="svg_9" fill="#ffffff" d="m4.5,22l-2,0c-0.276,0 -0.5,0.224001 -0.5,0.5s0.224,0.5 0.5,0.5l2,0c0.276,0 0.5,-0.224001 0.5,-0.5s-0.224,-0.5 -0.5,-0.5z"/>
  <path id="svg_11" fill="#ffffff" d="m4.5,20l-2,0c-0.276,0 -0.5,0.224001 -0.5,0.5s0.224,0.5 0.5,0.5l2,0c0.276,0 0.5,-0.224001 0.5,-0.5s-0.224,-0.5 -0.5,-0.5z"/>
  <path id="svg_13" fill="#ffffff" d="m4.5,18l-2,0c-0.276,0 -0.5,0.224001 -0.5,0.5s0.224,0.5 0.5,0.5l2,0c0.276,0 0.5,-0.224001 0.5,-0.5s-0.224,-0.5 -0.5,-0.5z"/>
  <path id="svg_15" fill="#ffffff" d="m4.5,16l-2,0c-0.276,0 -0.5,0.224001 -0.5,0.5s0.224,0.5 0.5,0.5l2,0c0.276,0 0.5,-0.224001 0.5,-0.5s-0.224,-0.5 -0.5,-0.5z"/>
  <path id="svg_17" fill="#ffffff" d="m4.5,14l-2,0c-0.276,0 -0.5,0.224 -0.5,0.5s0.224,0.5 0.5,0.5l2,0c0.276,0 0.5,-0.224 0.5,-0.5s-0.224,-0.5 -0.5,-0.5z"/>
  <path id="svg_19" fill="#ffffff" d="m4.5,12l-2,0c-0.276,0 -0.5,0.224 -0.5,0.5s0.224,0.5 0.5,0.5l2,0c0.276,0 0.5,-0.224 0.5,-0.5s-0.224,-0.5 -0.5,-0.5z"/>
  <path id="svg_21" fill="#ffffff" d="m4.5,10l-2,0c-0.276,0 -0.5,0.224 -0.5,0.5s0.224,0.5 0.5,0.5l2,0c0.276,0 0.5,-0.224 0.5,-0.5s-0.224,-0.5 -0.5,-0.5z"/>
  <path id="svg_23" fill="#ffffff" d="m4.5,8l-2,0c-0.276,0 -0.5,0.224 -0.5,0.5s0.224,0.5 0.5,0.5l2,0c0.276,0 0.5,-0.224 0.5,-0.5s-0.224,-0.5 -0.5,-0.5z"/>
  <path id="svg_25" fill="#ffffff" d="m30.5,24l-2,0c-0.275999,0 -0.5,0.224001 -0.5,0.5s0.224001,0.5 0.5,0.5l2,0c0.275999,0 0.5,-0.224001 0.5,-0.5s-0.224001,-0.5 -0.5,-0.5z"/>
  <path id="svg_27" fill="#ffffff" d="m30.5,22l-2,0c-0.275999,0 -0.5,0.224001 -0.5,0.5s0.224001,0.5 0.5,0.5l2,0c0.275999,0 0.5,-0.224001 0.5,-0.5s-0.224001,-0.5 -0.5,-0.5z"/>
  <path id="svg_29" fill="#ffffff" d="m30.5,20l-2,0c-0.275999,0 -0.5,0.224001 -0.5,0.5s0.224001,0.5 0.5,0.5l2,0c0.275999,0 0.5,-0.224001 0.5,-0.5s-0.224001,-0.5 -0.5,-0.5z"/>
  <path id="svg_31" fill="#ffffff" d="m30.5,18l-2,0c-0.275999,0 -0.5,0.224001 -0.5,0.5s0.224001,0.5 0.5,0.5l2,0c0.275999,0 0.5,-0.224001 0.5,-0.5s-0.224001,-0.5 -0.5,-0.5z"/>
  <path id="svg_33" fill="#ffffff" d="m30.5,16l-2,0c-0.275999,0 -0.5,0.224001 -0.5,0.5s0.224001,0.5 0.5,0.5l2,0c0.275999,0 0.5,-0.224001 0.5,-0.5s-0.224001,-0.5 -0.5,-0.5z"/>
  <path id="svg_35" fill="#ffffff" d="m30.5,14l-2,0c-0.275999,0 -0.5,0.224 -0.5,0.5s0.224001,0.5 0.5,0.5l2,0c0.275999,0 0.5,-0.224 0.5,-0.5s-0.224001,-0.5 -0.5,-0.5z"/>
  <path id="svg_37" fill="#ffffff" d="m30.5,12l-2,0c-0.275999,0 -0.5,0.224 -0.5,0.5s0.224001,0.5 0.5,0.5l2,0c0.275999,0 0.5,-0.224 0.5,-0.5s-0.224001,-0.5 -0.5,-0.5z"/>
  <path id="svg_39" fill="#ffffff" d="m30.5,10l-2,0c-0.275999,0 -0.5,0.224 -0.5,0.5s0.224001,0.5 0.5,0.5l2,0c0.275999,0 0.5,-0.224 0.5,-0.5s-0.224001,-0.5 -0.5,-0.5z"/>
  <path id="svg_41" fill="#ffffff" d="m28.5,9l2,0c0.275999,0 0.5,-0.224 0.5,-0.5s-0.224001,-0.5 -0.5,-0.5l-2,0c-0.275999,0 -0.5,0.224 -0.5,0.5s0.224001,0.5 0.5,0.5z"/>
  <path id="svg_43" fill="#ffffff" d="m24.5,28c-0.275999,0 -0.5,0.224001 -0.5,0.5l0,2c0,0.275999 0.224001,0.5 0.5,0.5s0.5,-0.224001 0.5,-0.5l0,-2c0,-0.275999 -0.224001,-0.5 -0.5,-0.5z"/>
  <path id="svg_45" fill="#ffffff" d="m22.5,28c-0.275999,0 -0.5,0.224001 -0.5,0.5l0,2c0,0.275999 0.224001,0.5 0.5,0.5s0.5,-0.224001 0.5,-0.5l0,-2c0,-0.275999 -0.224001,-0.5 -0.5,-0.5z"/>
  <path id="svg_47" fill="#ffffff" d="m20.5,28c-0.275999,0 -0.5,0.224001 -0.5,0.5l0,2c0,0.275999 0.224001,0.5 0.5,0.5s0.5,-0.224001 0.5,-0.5l0,-2c0,-0.275999 -0.224001,-0.5 -0.5,-0.5z"/>
  <path id="svg_49" fill="#ffffff" d="m18.5,28c-0.275999,0 -0.5,0.224001 -0.5,0.5l0,2c0,0.275999 0.224001,0.5 0.5,0.5s0.5,-0.224001 0.5,-0.5l0,-2c0,-0.275999 -0.224001,-0.5 -0.5,-0.5z"/>
  <path id="svg_51" fill="#ffffff" d="m16.5,28c-0.275999,0 -0.5,0.224001 -0.5,0.5l0,2c0,0.275999 0.224001,0.5 0.5,0.5s0.5,-0.224001 0.5,-0.5l0,-2c0,-0.275999 -0.224001,-0.5 -0.5,-0.5z"/>
  <path id="svg_53" fill="#ffffff" d="m14.5,28c-0.276,0 -0.5,0.224001 -0.5,0.5l0,2c0,0.275999 0.224,0.5 0.5,0.5s0.5,-0.224001 0.5,-0.5l0,-2c0,-0.275999 -0.224,-0.5 -0.5,-0.5z"/>
  <path id="svg_55" fill="#ffffff" d="m12.5,28c-0.276,0 -0.5,0.224001 -0.5,0.5l0,2c0,0.275999 0.224,0.5 0.5,0.5s0.5,-0.224001 0.5,-0.5l0,-2c0,-0.275999 -0.224,-0.5 -0.5,-0.5z"/>
  <path id="svg_57" fill="#ffffff" d="m10.5,28c-0.276,0 -0.5,0.224001 -0.5,0.5l0,2c0,0.275999 0.224,0.5 0.5,0.5s0.5,-0.224001 0.5,-0.5l0,-2c0,-0.275999 -0.224,-0.5 -0.5,-0.5z"/>
  <path id="svg_59" fill="#ffffff" d="m8.5,28c-0.276,0 -0.5,0.224001 -0.5,0.5l0,2c0,0.275999 0.224,0.5 0.5,0.5s0.5,-0.224001 0.5,-0.5l0,-2c0,-0.275999 -0.224,-0.5 -0.5,-0.5z"/>
  <path id="svg_61" fill="#ffffff" d="m24.5,2c-0.275999,0 -0.5,0.224 -0.5,0.5l0,2c0,0.276 0.224001,0.5 0.5,0.5s0.5,-0.224 0.5,-0.5l0,-2c0,-0.276 -0.224001,-0.5 -0.5,-0.5z"/>
  <path id="svg_63" fill="#ffffff" d="m22.5,2c-0.275999,0 -0.5,0.224 -0.5,0.5l0,2c0,0.276 0.224001,0.5 0.5,0.5s0.5,-0.224 0.5,-0.5l0,-2c0,-0.276 -0.224001,-0.5 -0.5,-0.5z"/>
  <path id="svg_65" fill="#ffffff" d="m20.5,2c-0.275999,0 -0.5,0.224 -0.5,0.5l0,2c0,0.276 0.224001,0.5 0.5,0.5s0.5,-0.224 0.5,-0.5l0,-2c0,-0.276 -0.224001,-0.5 -0.5,-0.5z"/>
  <path id="svg_67" fill="#ffffff" d="m18.5,2c-0.275999,0 -0.5,0.224 -0.5,0.5l0,2c0,0.276 0.224001,0.5 0.5,0.5s0.5,-0.224 0.5,-0.5l0,-2c0,-0.276 -0.224001,-0.5 -0.5,-0.5z"/>
  <path id="svg_69" fill="#ffffff" d="m16.5,2c-0.275999,0 -0.5,0.224 -0.5,0.5l0,2c0,0.276 0.224001,0.5 0.5,0.5s0.5,-0.224 0.5,-0.5l0,-2c0,-0.276 -0.224001,-0.5 -0.5,-0.5z"/>
  <path id="svg_71" fill="#ffffff" d="m14.5,2c-0.276,0 -0.5,0.224 -0.5,0.5l0,2c0,0.276 0.224,0.5 0.5,0.5s0.5,-0.224 0.5,-0.5l0,-2c0,-0.276 -0.224,-0.5 -0.5,-0.5z"/>
  <path id="svg_73" fill="#ffffff" d="m12.5,2c-0.276,0 -0.5,0.224 -0.5,0.5l0,2c0,0.276 0.224,0.5 0.5,0.5s0.5,-0.224 0.5,-0.5l0,-2c0,-0.276 -0.224,-0.5 -0.5,-0.5z"/>
  <path id="svg_75" fill="#ffffff" d="m10.5,2c-0.276,0 -0.5,0.224 -0.5,0.5l0,2c0,0.276 0.224,0.5 0.5,0.5s0.5,-0.224 0.5,-0.5l0,-2c0,-0.276 -0.224,-0.5 -0.5,-0.5z"/>
  <path id="svg_77" fill="#ffffff" d="m8.5,2c-0.276,0 -0.5,0.224 -0.5,0.5l0,2c0,0.276 0.224,0.5 0.5,0.5s0.5,-0.224 0.5,-0.5l0,-2c0,-0.276 -0.224,-0.5 -0.5,-0.5z"/>
  <circle id="svg_81" r="0.5" fill="#ffffff" cy="20.5" cx="20.5"/>
  <circle id="svg_83" r="0.5" fill="#ffffff" cy="20.5" cx="18.5"/>
  <circle id="svg_85" r="0.5" fill="#ffffff" cy="20.5" cx="16.5"/>
  <circle id="svg_87" r="0.5" fill="#ffffff" cy="20.5" cx="14.5"/>
  <circle id="svg_89" r="0.5" fill="#ffffff" cy="20.5" cx="12.5"/>
  <circle id="svg_92" r="0.5" fill="#ffffff" cy="18.5" cx="20.5"/>
  <circle id="svg_94" r="0.5" fill="#ffffff" cy="18.5" cx="18.5"/>
  <circle id="svg_96" r="0.5" fill="#ffffff" cy="18.5" cx="16.5"/>
  <circle id="svg_98" r="0.5" fill="#ffffff" cy="18.5" cx="14.5"/>
  <circle id="svg_100" r="0.5" fill="#ffffff" cy="18.5" cx="12.5"/>
  <circle id="svg_103" r="0.5" fill="#ffffff" cy="16.5" cx="20.5"/>
  <circle id="svg_105" r="0.5" fill="#ffffff" cy="16.5" cx="18.5"/>
  <circle id="svg_107" r="0.5" fill="#ffffff" cy="16.5" cx="16.5"/>
  <circle id="svg_109" r="0.5" fill="#ffffff" cy="16.5" cx="14.5"/>
  <circle id="svg_111" r="0.5" fill="#ffffff" cy="16.5" cx="12.5"/>
  <circle id="svg_114" r="0.5" fill="#ffffff" cy="14.5" cx="20.5"/>
  <circle id="svg_116" r="0.5" fill="#ffffff" cy="14.5" cx="18.5"/>
  <circle id="svg_118" r="0.5" fill="#ffffff" cy="14.5" cx="16.5"/>
  <circle id="svg_120" r="0.5" fill="#ffffff" cy="14.5" cx="14.5"/>
  <circle id="svg_122" r="0.5" fill="#ffffff" cy="14.5" cx="12.5"/>
  <circle id="svg_125" r="0.5" fill="#ffffff" cy="12.5" cx="20.5"/>
  <circle id="svg_127" r="0.5" fill="#ffffff" cy="12.5" cx="18.5"/>
  <circle id="svg_129" r="0.5" fill="#ffffff" cy="12.5" cx="16.5"/>
  <circle id="svg_131" r="0.5" fill="#ffffff" cy="12.5" cx="14.5"/>
  <circle id="svg_133" r="0.5" fill="#ffffff" cy="12.5" cx="12.5"/>
 </g>
</svg>