<svg width="52" height="52" xmlns="http://www.w3.org/2000/svg">

 <g>
  <title>background</title>
  <rect fill="none" id="canvas_background" height="402" width="582" y="-1" x="-1"/>
 </g>
 <g>
  <title>Layer 1</title>
  <path fill="#ffffff" id="svg_5" d="m48.999985,36l-46,0c-0.31543,0 -0.612305,-0.148926 -0.801758,-0.401855c-0.188477,-0.252441 -0.24707,-0.57959 -0.157227,-0.882324l8,-27c0.125978,-0.424316 0.516603,-0.71582 0.958985,-0.71582l19.24414,0l0,2l-18.497069,0l-7.408204,25l43.297852,0l-4.024414,-12.773438l1.908203,-0.600586l4.433594,14.07373c0.095703,0.303711 0.041016,0.634766 -0.147461,0.891602s-0.488281,0.408691 -0.806641,0.408691z"/>
  <path fill="#ffffff" id="svg_8" d="m48.999985,50l-46,0c-0.552735,0 -1,-0.447754 -1,-1l0,-14c0,-0.552246 0.447265,-1 1,-1l46,0c0.552734,0 1,0.447754 1,1l0,14c0,0.552246 -0.447266,1 -1,1zm-45,-2l44,0l0,-12l-44,0l0,12z"/>
  <path fill="#ffffff" id="svg_11" d="m38.999985,24c-6.06543,0 -11,-4.93457 -11,-11s4.93457,-11 11,-11s11,4.93457 11,11s-4.93457,11 -11,11zm0,-20c-4.962891,0 -9,4.037598 -9,9s4.037109,9 9,9s9,-4.037598 9,-9s-4.037109,-9 -9,-9z"/>
  <path fill="#ffffff" id="svg_14" d="m38.999985,17c-2.206055,0 -4,-1.794434 -4,-4s1.793945,-4 4,-4s4,1.794434 4,4s-1.793945,4 -4,4zm0,-6c-1.102539,0 -2,0.896973 -2,2s0.897461,2 2,2s2,-0.896973 2,-2s-0.897461,-2 -2,-2z"/>
  <rect fill="#ffffff" id="svg_17" y="44" x="6.999985" width="4" height="2"/>
  <rect fill="#ffffff" id="svg_20" y="39" x="6.999985" width="38" height="2"/>
 </g>
</svg>