<svg width="64" height="64" xmlns="http://www.w3.org/2000/svg">

 <g>
  <title>background</title>
  <rect fill="none" id="canvas_background" height="402" width="582" y="-1" x="-1"/>
 </g>
 <g>
  <title>Layer 1</title>
  <path fill="#f50f0f" id="Fill-55" d="m32,55.700012l-0.899994,-1.100006c-0.600006,-0.799988 -15.900009,-18.699982 -15.900009,-29.399994c0,-9.299988 7.600006,-16.799988 16.800003,-16.799988s16.800003,7.599976 16.800003,16.799988c0,10.700012 -15.300003,28.700012 -15.900009,29.399994l-0.899994,1.100006l0,0zm0,-45c-8,0 -14.399994,6.5 -14.399994,14.399994c0,8.399994 11.099991,22.700012 14.399994,26.800018c3.300003,-4.100006 14.399994,-18.300018 14.399994,-26.800018c0,-7.899994 -6.399994,-14.399994 -14.399994,-14.399994l0,0z" class="st0"/>
  <path fill="#f50f0f" id="Fill-56" d="m32,31.600006c-3.5,0 -6.399994,-2.899994 -6.399994,-6.399994s2.899994,-6.399994 6.399994,-6.399994s6.399994,2.899994 6.399994,6.399994s-2.899994,6.399994 -6.399994,6.399994l0,0zm0,-10.399994c-2.199997,0 -4,1.799988 -4,4s1.800003,4 4,4c2.199997,0 4,-1.799988 4,-4s-1.800003,-4 -4,-4l0,0z" class="st0"/>
 </g>
</svg>