<svg width="128" height="128" xmlns="http://www.w3.org/2000/svg">

 <g>
  <title>background</title>
  <rect fill="none" id="canvas_background" height="402" width="582" y="-1" x="-1"/>
 </g>
 <g>
  <title>Layer 1</title>
  <path id="svg_2" fill="#ffffff" d="m120.999023,32.242676c-2.40625,-4.945801 -7.22168,-8.992676 -10.701172,-8.992676s-3.960938,3.827637 -1.068359,8.505859c0,0 8.270508,13.378418 8.270508,26.994141c0,29.5 -24,53.5 -53.5,53.5s-53.5,-24 -53.5,-53.5c0,-13.615723 8.270508,-26.994141 8.270508,-26.994141c2.89209,-4.678223 2.411133,-8.505859 -1.068848,-8.505859s-8.29541,4.046875 -10.700683,8.992676c0,0 -6.500977,13.367676 -6.500977,26.507324c0,35.013672 28.48584,63.5 63.5,63.5c35.013672,0 63.5,-28.486328 63.5,-63.5c0,-13.139648 -6.500977,-26.507324 -6.500977,-26.507324zm-56.999023,36.507324c2.75,0 5,-2.25 5,-5l0,-53c0,-2.75 -2.25,-5 -5,-5s-5,2.25 -5,5l0,53c0,2.75 2.25,5 5,5z"/>
 </g>
</svg>