<svg width="256" height="256" xmlns="http://www.w3.org/2000/svg">

 <g>
  <title>background</title>
  <rect fill="none" id="canvas_background" height="402" width="582" y="-1" x="-1"/>
 </g>
 <g>
  <title>Layer 1</title>
  <path fill="#f50f0f" id="svg_2" d="m181.574295,101.699997c0,-3.099998 -1.899994,-5.799995 -4.699997,-7c-18.800003,-7.899994 -33.5,-22.5 -41.5,-41.299995c-1.199997,-2.900002 -4,-4.700001 -7.100006,-4.700001c-3.099998,0 -5.800003,1.799999 -7.099998,4.700001c-7.900002,18.699997 -22.600006,33.299995 -41.300003,41.199997c-2.800003,1.200005 -4.699997,3.900002 -4.699997,7c0,3.099998 1.799995,5.800003 4.599998,7.099998c18,7.900002 33,23.100006 41.299995,41.800003c1.200005,2.800003 4,4.600006 7.000008,4.600006c0,0 0,0 0,0c3,0 5.800003,-1.800003 7,-4.700012c7.800003,-18.099991 23.100006,-33.299995 41.800003,-41.599991c2.899994,-1.300003 4.699997,-4.100006 4.699997,-7.100006zm-53.5,41c-8.900002,-17.799995 -23.400002,-32.399994 -40.600006,-41c17.800003,-8.599998 32.099998,-22.799995 40.700012,-40.599998c8.699997,17.900002 23,32.200005 41,40.700005c-17.800003,9 -32.5,23.599998 -41.100006,40.899994z"/>
  <path fill="#f50f0f" id="svg_3" d="m175.800003,180.800003c0.899994,0.300003 2.099991,0.699997 3.599991,0.599991c2.400009,-0.099991 4.600006,-1.099991 6.300003,-2.799988c1.800003,-1.800003 2.800003,-4.200012 2.699997,-6.700012c-0.199997,-15.799988 9.800003,-29.599991 24.800003,-34.299988c1,-0.300003 2.100006,-0.800003 2.900009,-1.5c2,-1.5 3.299988,-3.700012 3.599991,-6c0.400009,-2.500008 -0.199997,-5.000008 -1.699997,-7.100006c-9.399994,-12.699997 -9.5,-29.699997 -0.100006,-42.199997l1.200012,-1.400002l0.5,-1.5c0.799988,-2.400002 0.5,-5 -0.600006,-7.099998c-1.199997,-2.300003 -3.199997,-4 -5.5,-4.700005c-15,-4.799999 -24.899994,-18.5 -24.800003,-34.199999c0,-1.199999 -0.199997,-2.299999 -0.5,-3.299999c-0.800003,-2.300001 -2.5,-4.200001 -4.800003,-5.4c-2.299988,-1.1 -4.699997,-1.200001 -7,-0.400002c-3.699997,1.300001 -7.5,1.900002 -11.399994,1.900002c-11.5,0 -22.300003,-5.6 -28.899994,-14.900001c-0.700012,-0.900001 -1.5,-1.7 -2.200012,-2.2c-4.199997,-3 -10.099991,-2 -13.099991,2.2c-6.600006,9.400001 -17.400002,14.900001 -28.900002,14.900001c-3.900002,0 -7.700005,-0.6 -11.300003,-1.900002c-3.199997,-1.099998 -7.299995,-0.299999 -9.699997,2.300001c-1.800003,1.799999 -2.800003,4.199999 -2.700005,6.699999c0.200005,15.799999 -9.799995,29.5 -24.699997,34.200001c-1.099998,0.300003 -2,0.800003 -3,1.5c-4.099998,3.099998 -5,9 -1.900002,13.199997c9.400002,12.700005 9.400002,29.700005 0,42.400002c-0.599998,0.800003 -1.099998,1.800003 -1.399998,2.700005c-0.700001,2.399994 -0.5,4.800003 0.700001,7.199997c1.199997,2.199997 3.199997,3.899994 5.5,4.600006c15,4.799988 24.900002,18.599991 24.699997,34.099991c-0.099998,1.199997 0.099998,2.300003 0.5,3.400009c0.800003,2.299988 2.5,4.199997 4.800003,5.399994c2.299995,1.100006 4.699997,1.199997 7,0.399994c3.799995,-1.299988 7.699997,-1.899994 11.599998,-1.899994c11.599998,0 22,5.5 28.800003,15c0.599998,0.800003 1.399994,1.600006 2.199997,2.199997c1.599998,1.199997 3.5,1.800003 5.399994,1.800003c0.5,0 1.100006,0 1.600006,-0.100006c2.5,-0.399994 4.699997,-1.799988 6.100006,-3.799988c8.599991,-13 24.699997,-18.300003 39.699997,-13.300003zm-47.699997,7.599991c-8.399994,-11.900009 -22.099998,-19 -36.599998,-19c-4.899994,0 -9.799995,0.800003 -14.399994,2.599991c0.299995,-19.899994 -12.400002,-37.399994 -31.300003,-43.199997c11.899998,-16.099998 11.899998,-37.699997 -0.100002,-53.5c19.000004,-5.900002 31.700001,-23.199997 31.600002,-43.199997c4.5,1.5 9.300003,2.299999 14.099998,2.299999c14.599998,0 28.300003,-7.1 36.400002,-19c8.400002,11.9 22.200005,19 36.799995,19c4.900009,0 9.800003,-0.799999 14.199997,-2.5c-0.199997,19.700001 12.300003,36.999996 31.100006,43.200001c-11.699997,16 -11.699997,37.299995 0,53.399994c-18.899994,6.100006 -31.5,23.5 -31.100006,43.200012l-0.099991,0c-18.800018,-6.399994 -39.400009,0.300003 -50.600006,16.699997z"/>
  <path fill="#f50f0f" id="svg_4" d="m96.900002,193.5c-2.200005,-1.399994 -5.200005,-0.800003 -6.599998,1.399994l-23.400002,35.800003l-12.900002,-26.399994l-26.799999,-0.100006l24.5,-37.5c1.5,-2.199997 0.799999,-5.199997 -1.400002,-6.599991c-2.200001,-1.5 -5.200001,-0.800003 -6.599998,1.399994l-34.200001,52.300003l38.599998,0.099991l17.700005,36.200012l32.599998,-50c1.400002,-2.200012 0.699997,-5.200012 -1.5,-6.600006z"/>
  <path fill="#f50f0f" id="svg_5" d="m212.300003,161.399994c-1.5,-2.199997 -4.400009,-2.800003 -6.600006,-1.400009c-2.199997,1.5 -2.800003,4.400009 -1.399994,6.600006l24.599991,37.600006l-26.799988,0.099991l-12.900009,26.400009l-23.5,-35.900009c-1.5,-2.199997 -4.399994,-2.800003 -6.599991,-1.399994c-2.200012,1.5 -2.800003,4.399994 -1.400009,6.599991l32.700012,50.100006l17.699997,-36.199997l38.599991,-0.100006l-34.399994,-52.399994z"/>
 </g>
</svg>