<svg width="800" height="800" xmlns="http://www.w3.org/2000/svg">

 <g>
  <title>background</title>
  <rect fill="none" id="canvas_background" height="402" width="582" y="-1" x="-1"/>
 </g>
 <g>
  <title>Layer 1</title>
  <path id="svg_1" fill="#ffffff" d="m756.573975,210.307999l-713.146976,0c-8.285999,0 -14.999998,6.716995 -14.999998,15l0,250.000015l0,99.389984c0,8.280029 6.712999,14.994995 14.999998,14.994995l296.074009,0c3.977997,0 7.791992,-1.575989 10.604004,-4.39502c2.812988,-2.806946 4.394989,-6.620972 4.394989,-10.60199l-0.002991,-23.393005l90.997986,0l0,23.393005c0,8.278992 6.718018,14.994995 15.001007,14.994995l296.076996,0c8.28302,0 14.997986,-6.716003 14.997986,-14.994995l0,-99.389984l0,-250c0.001038,-8.281998 -6.713989,-14.998001 -14.997009,-14.998001zm-15.000977,349.387985l-27.747009,0l0,-29.390991c0,-8.280029 -6.718018,-15.001038 -15.000977,-15.001038s-15.001038,6.721008 -15.001038,15.001038l0,29.390991l-34.422974,0l0,-29.390991c0,-8.280029 -6.718994,-15.001038 -15.004028,-15.001038c-8.282959,0 -15.000977,6.721008 -15.000977,15.001038l0,29.390991l-34.426025,0l0,-29.390991c0,-8.280029 -6.718018,-15.001038 -15.000977,-15.001038c-8.283997,0 -15.001038,6.721008 -15.001038,15.001038l0,29.390991l-34.429993,0l0,-29.390991c0,-8.280029 -6.714966,-15.001038 -14.997986,-15.001038c-8.279999,0 -14.998016,6.721008 -14.998016,15.001038l0,29.390991l-15.044983,0l0,-23.393005c0,-8.279968 -6.714996,-15.000977 -15.001007,-15.000977l-120.996979,0c-3.980011,0 -7.795013,1.58197 -10.606995,4.398987c-2.813019,2.805969 -4.39502,6.625977 -4.39502,10.60498l0.002014,23.388l-15.042999,0l0,-29.390991c0,-8.279968 -6.716003,-15.000977 -15,-15.000977c-8.286011,0 -15,6.721008 -15,15.000977l0,29.390991l-34.428009,0l0,-29.390991c0,-8.279968 -6.714996,-15.000977 -15.000992,-15.000977c-8.283005,0 -15,6.721008 -15,15.000977l0,29.390991l-34.426987,0l0,-29.390991c0,-8.279968 -6.716003,-15.000977 -15,-15.000977c-8.283997,0 -15,6.721008 -15,15.000977l0,29.390991l-34.428993,0l0,-29.390991c0,-8.279968 -6.716003,-15.000977 -14.997002,-15.000977c-8.286003,0 -15,6.721008 -15,15.000977l0,29.390991l-27.747013,0l0,-69.383972l683.146,0l0,69.385986zm0,-99.38797l-683.146,0l0,-219.999008l683.146,0l0,219.999008z"/>
  <path id="svg_2" fill="#ffffff" d="m185.850006,272.80899l-84.675003,0c-8.286003,0 -15,6.714996 -15,15.001007l0,124.997986c0,8.286011 6.712997,14.994995 15,14.994995l84.675003,0c8.281998,0 15,-6.708984 15,-14.994995l0,-124.997986c-0.001007,-8.286987 -6.719009,-15.001007 -15,-15.001007zm-15,124.999023l-54.678009,0l0,-95l54.678009,0l0,95z"/>
  <path id="svg_3" fill="#ffffff" d="m356.841003,272.80899l-84.677002,0c-8.28299,0 -15,6.714996 -15,15.001007l0,124.997986c0,8.286011 6.716003,14.994995 15,14.994995l84.677002,0c8.281982,0 14.997986,-6.708984 14.997986,-14.994995l0,-124.997986c0,-8.286987 -6.716003,-15.001007 -14.997986,-15.001007zm-15.001007,124.999023l-54.674988,0l0,-95l54.674988,0l0,95z"/>
  <path id="svg_4" fill="#ffffff" d="m527.833008,272.80899l-84.677002,0c-8.28299,0 -15.003998,6.714996 -15.003998,15.001007l0,124.997986c0,8.286011 6.721008,14.994995 15.003998,14.994995l84.677002,0c8.28302,0 15.000977,-6.708984 15.000977,-14.994995l0,-124.997986c0,-8.286987 -6.717957,-15.001007 -15.000977,-15.001007zm-15.004028,124.999023l-54.671997,0l0,-95l54.671997,0l0,95z"/>
  <path id="svg_5" fill="#ffffff" d="m698.825012,272.80899l-84.677979,0c-8.286011,0 -14.998047,6.714996 -14.998047,15.001007l0,124.997986c0,8.286011 6.712036,14.994995 14.998047,14.994995l84.677979,0c8.28302,0 15.000977,-6.708984 15.000977,-14.994995l0,-124.997986c0,-8.286987 -6.718018,-15.001007 -15.000977,-15.001007zm-15.004028,124.999023l-54.675964,0l0,-95l54.675964,0l0,95z"/>
 </g>
</svg>