<svg width="52" height="52" xmlns="http://www.w3.org/2000/svg">

 <g>
  <title>background</title>
  <rect fill="none" id="canvas_background" height="402" width="582" y="-1" x="-1"/>
 </g>
 <g>
  <title>Layer 1</title>
  <path fill="#ffffff" id="svg_4" d="m49.000149,36l-45.999999,0c-0.31543,0 -0.61231,-0.14893 -0.80176,-0.401859c-0.18848,-0.252441 -0.24707,-0.57959 -0.15723,-0.88232l8,-27c0.12598,-0.42432 0.51661,-0.71582 0.95899,-0.71582l15.9043,0l0,2l-15.157229,0l-7.4082,25l43.34375,0l-4.671879,-16.730961l1.925777,-0.538078l5.026371,18c0.083981,0.30127 0.022461,0.624508 -0.166019,0.873528c-0.189449,0.249031 -0.484371,0.395512 -0.796871,0.395512z"/>
  <path fill="#ffffff" id="svg_7" d="m49.000149,50l-45.999999,0c-0.55274,0 -1,-0.44775 -1,-1l0,-14c0,-0.55225 0.44726,-1 1,-1l45.999999,0c0.552731,0 1,0.44775 1,1l0,14c0,0.55225 -0.447269,1 -1,1zm-44.999999,-2l43.999999,0l0,-12l-43.999999,0l0,12z"/>
  <rect fill="#ffffff" id="svg_10" y="44" x="7.000149" width="4" height="2"/>
  <rect fill="#ffffff" id="svg_13" y="39" x="7.000149" width="38" height="2"/>
  <path fill="#ffffff" id="svg_16" d="m49.000149,18l-21.999998,0c-0.55274,0 -1,-0.44775 -1,-1l0,-14c0,-0.55225 0.44726,-1 1,-1l21.999998,0c0.552731,0 1,0.44775 1,1l0,14c0,0.55225 -0.447269,1 -1,1zm-20.999998,-2l19.999998,0l0,-12l-19.999998,0l0,12z"/>
  <path fill="#ffffff" id="svg_21" d="m32.931149,8.40314c-0.246948,0 -0.449417,0.058 -0.607418,0.174c-0.158581,0.11634 -0.237591,0.29169 -0.237591,0.52639c0,0.23504 0.07901,0.41443 0.237591,0.53853c0.158001,0.12443 0.49448,0.258639 1.010029,0.40195c0.514969,0.14399 0.90353,0.34565 1.165112,0.604959c0.26099,0.259991 0.391491,0.64239 0.391491,1.14787s-0.165031,0.91586 -0.496243,1.230821c-0.330627,0.31495 -0.764248,0.472429 -1.301449,0.472429c-0.785912,0 -1.48345,-0.31226 -2.092051,-0.93643l0.53194,-0.73782c0.50794,0.50851 1.035189,0.76243 1.581758,0.76243c0.273281,0 0.490379,-0.06744 0.65073,-0.203c0.160919,-0.135221 0.241093,-0.31495 0.241093,-0.53853c0,-0.2239 -0.075493,-0.3979 -0.226471,-0.52234c-0.15097,-0.12409 -0.411381,-0.23739 -0.780052,-0.33957c-0.369247,-0.10217 -0.650139,-0.19625 -0.841499,-0.28191c-0.191938,-0.085649 -0.362228,-0.19726 -0.51087,-0.33552c-0.29727,-0.25965 -0.44532,-0.65756 -0.44532,-1.19339s0.168531,-0.948911 0.506771,-1.23892c0.337648,-0.29 0.75606,-0.435 1.254641,-0.435c0.32127,0 0.64019,0.0607 0.956188,0.1821c0.316589,0.12173 0.58987,0.29303 0.819851,0.51391l-0.45293,0.73748c-0.14864,-0.15445 -0.349949,-0.28157 -0.60392,-0.38105c-0.253971,-0.099481 -0.504429,-0.14939 -0.751381,-0.14939z"/>
  <path fill="#ffffff" id="svg_24" d="m37.461079,8.40314c-0.246948,0 -0.449417,0.058 -0.607418,0.174c-0.158592,0.11634 -0.237591,0.29169 -0.237591,0.52639c0,0.23504 0.078999,0.41443 0.237591,0.53853c0.158001,0.12443 0.49448,0.258639 1.010029,0.40195c0.514961,0.14399 0.90353,0.34565 1.165112,0.604959c0.26099,0.259991 0.391491,0.64239 0.391491,1.14787s-0.165031,0.91586 -0.496243,1.230821c-0.330631,0.31495 -0.764259,0.472429 -1.30146,0.472429c-0.7859,0 -1.483448,-0.31226 -2.092041,-0.93643l0.53194,-0.73782c0.507942,0.50851 1.035191,0.76243 1.58176,0.76243c0.273281,0 0.490379,-0.06744 0.650723,-0.203c0.160927,-0.135221 0.2411,-0.31495 0.2411,-0.53853c0,-0.2239 -0.075493,-0.3979 -0.226471,-0.52234c-0.150982,-0.12409 -0.411381,-0.23739 -0.780052,-0.33957c-0.369247,-0.10217 -0.650139,-0.19625 -0.841499,-0.28191c-0.19194,-0.085649 -0.362228,-0.19726 -0.510868,-0.33552c-0.297272,-0.25965 -0.44532,-0.65756 -0.44532,-1.19339s0.16853,-0.948911 0.506767,-1.23892c0.33765,-0.29 0.756062,-0.435 1.254642,-0.435c0.321259,0 0.64019,0.0607 0.956188,0.1821c0.316589,0.12173 0.58987,0.29303 0.819851,0.51391l-0.45293,0.73748c-0.14864,-0.15445 -0.349949,-0.28157 -0.60392,-0.38105c-0.253971,-0.099481 -0.504429,-0.14939 -0.751381,-0.14939z"/>
  <path fill="#ffffff" id="svg_27" d="m44.27441,8.3991c0.484531,0.50548 0.726219,1.20856 0.726219,2.10925c0,0.900359 -0.234669,1.613219 -0.704571,2.137919c-0.469898,0.525041 -1.189098,0.78739 -2.156998,0.78739l-1.668362,0l0,-5.79295l1.725712,0c0.901188,0 1.594048,0.25291 2.077999,0.75839zm-0.12933,2.13387c0,-1.325911 -0.65892,-1.988871 -1.977341,-1.988871l-0.848518,0l0,3.96965l0.94215,0c0.608589,0 1.074978,-0.16692 1.39859,-0.501431c0.323608,-0.33418 0.485119,-0.82718 0.485119,-1.479349z"/>
 </g>
</svg>