<svg width="32" height="32" xmlns="http://www.w3.org/2000/svg">

 <g>
  <title>background</title>
  <rect fill="none" id="canvas_background" height="402" width="582" y="-1" x="-1"/>
 </g>
 <g>
  <title>Layer 1</title>
  <path id="svg_4" fill="#ffffff" d="m27.5,24l-24,0c-0.276,0 -0.5,-0.224001 -0.5,-0.5l0,-18c0,-0.276 0.224,-0.5 0.5,-0.5l24,0c0.146,0 0.284,0.063 0.379999,0.175l3,3.5c0.077002,0.091 0.120001,0.205999 0.120001,0.325l0,11c0,0.118999 -0.042999,0.233999 -0.120001,0.325001l-3,3.5c-0.095999,0.112 -0.233999,0.174999 -0.379999,0.174999zm-23.5,-1l23.271,0l2.729,-3.184999l0,-10.63l-2.729,-3.185l-23.271,0l0,17z"/>
  <path id="svg_11" fill="#ffffff" d="m20.929068,22c-4.136,0 -7.500999,-3.364 -7.500999,-7.5s3.365,-7.5 7.500999,-7.5c4.135,0 7.499001,3.364 7.499001,7.5s-3.364,7.5 -7.499001,7.5zm0,-14c-3.584999,0 -6.500999,2.916 -6.500999,6.5s2.916,6.5 6.500999,6.5c3.584,0 6.499001,-2.916 6.499001,-6.5s-2.915001,-6.5 -6.499001,-6.5z"/>
  <path id="svg_16" fill="#ffffff" d="m15.551,19.450001l1.000001,0c0,-1.869001 1.262999,-2.881001 2.897999,-3.700001c-0.209,-0.259 -0.355,-0.566 -0.414999,-0.908c-1.861,0.934 -3.484,2.200999 -3.483001,4.608001z"/>
  <path id="svg_17" fill="#ffffff" d="m26.448999,9.55l-1,0c0,1.868999 -1.262999,2.881 -2.897999,3.7c0.209,0.259 0.355,0.566 0.414999,0.908c1.861,-0.934 3.484001,-2.201 3.483,-4.608z"/>
  <path id="svg_18" fill="#ffffff" d="m25.243999,16.146999c1.096001,0 2.156,-0.341 3.109001,-1.294l-0.707001,-0.707c-1.320999,1.321 -2.93,1.143 -4.667999,0.566c-0.037001,0.345 -0.154001,0.665 -0.344,0.935c0.869999,0.289 1.750999,0.499999 2.609999,0.499999z"/>
  <path id="svg_19" fill="#ffffff" d="m13.646,14.146l0.707,0.707c1.321,-1.321 2.930001,-1.144 4.668,-0.566c0.037001,-0.346 0.153999,-0.665999 0.344999,-0.936c-1.976,-0.655 -4.018,-0.906 -5.719999,0.795z"/>
  <path id="svg_20" fill="#ffffff" d="m16.049999,9.051l0,1c1.869001,0 2.881001,1.263 3.700001,2.898001c0.259001,-0.209001 0.566,-0.355 0.908001,-0.415c-0.934,-1.861 -2.201,-3.483001 -4.608002,-3.483001z"/>
  <path id="svg_21" fill="#ffffff" d="m22.25,16.051001c-0.259001,0.209 -0.566,0.355 -0.908001,0.414999c0.935001,1.861 2.201,3.483 4.608002,3.483l0,-1c-1.869001,0 -2.881001,-1.261999 -3.700001,-2.897999z"/>
  <path id="svg_22" fill="#ffffff" d="m21.354,7.146l-0.707001,0.707c1.321001,1.321 1.144001,2.931 0.566,4.668c0.346001,0.037 0.666,0.154 0.936001,0.345c0.656,-1.976 0.907,-4.017 -0.795,-5.72z"/>
  <path id="svg_23" fill="#ffffff" d="m20.646,21.854l0.707001,-0.707001c-1.321001,-1.320999 -1.144001,-2.931 -0.566,-4.667999c-0.346001,-0.037001 -0.666,-0.153999 -0.936001,-0.344999c-0.656,1.976 -0.907,4.016998 0.795,5.719999z"/>
  <path id="svg_26" fill="#ffffff" d="m21.000999,17c-1.379,0 -2.500999,-1.121 -2.500999,-2.5s1.122,-2.5 2.500999,-2.5c1.378,0 2.499001,1.121 2.499001,2.5s-1.121,2.5 -2.499001,2.5zm0,-4c-0.827,0 -1.500999,0.673 -1.500999,1.5s0.674,1.5 1.500999,1.5c0.826,0 1.499001,-0.673 1.499001,-1.5s-0.673,-1.5 -1.499001,-1.5z"/>
  <path id="svg_30" fill="#ffffff" d="m3,28.5l0,-22.5l-1.5,0c-0.276,0 -0.5,-0.224 -0.5,-0.5s0.224,-0.5 0.5,-0.5l2.5,0l0,23.5c0,0.275999 -0.224,0.5 -0.5,0.5l0,0c-0.276,0 -0.5,-0.224001 -0.5,-0.5z"/>
  <path id="svg_34" fill="#ffffff" d="m3.5,22l-2,0c-0.276,0 -0.5,-0.224001 -0.5,-0.5l0,-5c0,-0.275999 0.224,-0.5 0.5,-0.5l2,0c0.276,0 0.5,0.224001 0.5,0.5l0,5c0,0.275999 -0.224,0.5 -0.5,0.5zm-1.5,-1l1,0l0,-4l-1,0l0,4z"/>
  <path id="svg_38" fill="#ffffff" d="m3.5,12l-2,0c-0.276,0 -0.5,-0.224 -0.5,-0.5l0,-3c0,-0.276 0.224,-0.5 0.5,-0.5l2,0c0.276,0 0.5,0.224 0.5,0.5l0,3c0,0.276 -0.224,0.5 -0.5,0.5zm-1.5,-1l1,0l0,-2l-1,0l0,2z"/>
  <path id="svg_42" fill="#263238" d="m1.5,24l1.5,0l-1.5,0z"/>
  <path id="svg_45" fill="#ffffff" d="m3,24l-1.5,0c-0.276,0 -0.5,-0.224001 -0.5,-0.5s0.224,-0.5 0.5,-0.5l1.5,0c0.276,0 0.5,0.224001 0.5,0.5s-0.224,0.5 -0.5,0.5z"/>
  <path id="svg_49" fill="#ffffff" d="m3,15l-1.5,0c-0.276,0 -0.5,-0.224 -0.5,-0.5s0.224,-0.5 0.5,-0.5l1.5,0c0.276,0 0.5,0.224 0.5,0.5s-0.224,0.5 -0.5,0.5z"/>
  <path id="svg_54" fill="#ffffff" d="m25.5,27l-12,0c-0.276,0 -0.5,-0.224001 -0.5,-0.5l0,-3c0,-0.275999 0.224,-0.5 0.5,-0.5l12,0c0.275999,0 0.5,0.224001 0.5,0.5l0,3c0,0.275999 -0.224001,0.5 -0.5,0.5zm-11.5,-1l11,0l0,-2l-11,0l0,2z"/>
  <path id="svg_58" fill="#ffffff" d="m11.5,27l-4,0c-0.276,0 -0.5,-0.224001 -0.5,-0.5l0,-3c0,-0.275999 0.224,-0.5 0.5,-0.5l4,0c0.276,0 0.5,0.224001 0.5,0.5l0,3c0,0.275999 -0.224,0.5 -0.5,0.5zm-3.5,-1l3,0l0,-2l-3,0l0,2z"/>
  <path id="svg_62" fill="#263238" d="m23,25.5l0,1l0,-1z"/>
  <path id="svg_65" fill="#ffffff" d="m23.5,27c-0.275999,0 -0.5,-0.224001 -0.5,-0.5l0,-1c0,-0.275999 0.224001,-0.5 0.5,-0.5s0.5,0.224001 0.5,0.5l0,1c0,0.275999 -0.224001,0.5 -0.5,0.5z"/>
  <path id="svg_69" fill="#263238" d="m21,25.5l0,1l0,-1z"/>
  <path id="svg_72" fill="#ffffff" d="m21.5,27c-0.275999,0 -0.5,-0.224001 -0.5,-0.5l0,-1c0,-0.275999 0.224001,-0.5 0.5,-0.5s0.5,0.224001 0.5,0.5l0,1c0,0.275999 -0.224001,0.5 -0.5,0.5z"/>
  <path id="svg_76" fill="#263238" d="m19,25.5l0,1l0,-1z"/>
  <path id="svg_79" fill="#ffffff" d="m19.5,27c-0.275999,0 -0.5,-0.224001 -0.5,-0.5l0,-1c0,-0.275999 0.224001,-0.5 0.5,-0.5s0.5,0.224001 0.5,0.5l0,1c0,0.275999 -0.224001,0.5 -0.5,0.5z"/>
  <path id="svg_83" fill="#263238" d="m17,25.5l0,1l0,-1z"/>
  <path id="svg_86" fill="#ffffff" d="m17.5,27c-0.275999,0 -0.5,-0.224001 -0.5,-0.5l0,-1c0,-0.275999 0.224001,-0.5 0.5,-0.5s0.5,0.224001 0.5,0.5l0,1c0,0.275999 -0.224001,0.5 -0.5,0.5z"/>
  <path id="svg_90" fill="#263238" d="m15,25.5l0,1l0,-1z"/>
  <path id="svg_93" fill="#ffffff" d="m15.5,27c-0.276,0 -0.5,-0.224001 -0.5,-0.5l0,-1c0,-0.275999 0.224,-0.5 0.5,-0.5s0.5,0.224001 0.5,0.5l0,1c0,0.275999 -0.224,0.5 -0.5,0.5z"/>
  <path id="svg_97" fill="#263238" d="m9,25.5l0,1l0,-1z"/>
  <path id="svg_100" fill="#ffffff" d="m9.5,27c-0.276,0 -0.5,-0.224001 -0.5,-0.5l0,-1c0,-0.275999 0.224,-0.5 0.5,-0.5s0.5,0.224001 0.5,0.5l0,1c0,0.275999 -0.224,0.5 -0.5,0.5z"/>
  <path id="svg_106" fill="#ffffff" d="m4.5,22l-1,0c-0.276,0 -0.5,-0.224001 -0.5,-0.5s0.224,-0.5 0.5,-0.5l1,0c0.276,0 0.5,0.224001 0.5,0.5s-0.224,0.5 -0.5,0.5z"/>
  <path id="svg_111" fill="#ffffff" d="m4.5,20l-1,0c-0.276,0 -0.5,-0.224001 -0.5,-0.5s0.224,-0.5 0.5,-0.5l1,0c0.276,0 0.5,0.224001 0.5,0.5s-0.224,0.5 -0.5,0.5z"/>
  <path id="svg_116" fill="#ffffff" d="m4.5,18l-1,0c-0.276,0 -0.5,-0.224001 -0.5,-0.5s0.224,-0.5 0.5,-0.5l1,0c0.276,0 0.5,0.224001 0.5,0.5s-0.224,0.5 -0.5,0.5z"/>
  <path id="svg_121" fill="#ffffff" d="m4.5,16l-1,0c-0.276,0 -0.5,-0.224 -0.5,-0.5s0.224,-0.5 0.5,-0.5l1,0c0.276,0 0.5,0.224 0.5,0.5s-0.224,0.5 -0.5,0.5z"/>
  <path id="svg_126" fill="#ffffff" d="m4.5,14l-1,0c-0.276,0 -0.5,-0.224 -0.5,-0.5s0.224,-0.5 0.5,-0.5l1,0c0.276,0 0.5,0.224 0.5,0.5s-0.224,0.5 -0.5,0.5z"/>
  <path id="svg_131" fill="#ffffff" d="m4.5,12l-1,0c-0.276,0 -0.5,-0.224 -0.5,-0.5s0.224,-0.5 0.5,-0.5l1,0c0.276,0 0.5,0.224 0.5,0.5s-0.224,0.5 -0.5,0.5z"/>
  <path id="svg_136" fill="#ffffff" d="m4.5,10l-1,0c-0.276,0 -0.5,-0.224 -0.5,-0.5s0.224,-0.5 0.5,-0.5l1,0c0.276,0 0.5,0.224 0.5,0.5s-0.224,0.5 -0.5,0.5z"/>
  <path id="svg_141" fill="#ffffff" d="m4.5,8l-1,0c-0.276,0 -0.5,-0.224 -0.5,-0.5s0.224,-0.5 0.5,-0.5l1,0c0.276,0 0.5,0.224 0.5,0.5s-0.224,0.5 -0.5,0.5z"/>
  <path id="svg_145" fill="#ffffff" d="m10.5,21l-2,0c-0.276,0 -0.5,-0.224001 -0.5,-0.5l0,-4c0,-0.275999 0.224,-0.5 0.5,-0.5l2,0c0.276,0 0.5,0.224001 0.5,0.5l0,4c0,0.275999 -0.224,0.5 -0.5,0.5zm-1.5,-1l1,0l0,-3l-1,0l0,3z"/>
  <path id="svg_149" fill="#ffffff" d="m10.5,14l-2,0c-0.276,0 -0.5,-0.224 -0.5,-0.5l0,-5c0,-0.276 0.224,-0.5 0.5,-0.5l2,0c0.276,0 0.5,0.224 0.5,0.5l0,5c0,0.276 -0.224,0.5 -0.5,0.5zm-1.5,-1l1,0l0,-4l-1,0l0,4z"/>
 </g>
</svg>