<svg width="512" height="512" xmlns="http://www.w3.org/2000/svg">

 <g>
  <title>background</title>
  <rect fill="none" id="canvas_background" height="402" width="582" y="-1" x="-1"/>
 </g>
 <g>
  <title>Layer 1</title>
  <path fill="#ffffff" id="svg_2" d="m199.899994,282.700012l0,105.5l-0.800003,-0.100006l-103.299988,-20.800018l0,-84.600006l104.099991,0m2.200012,-15.999969l-108.700005,0c-7.400002,0 -13.400002,6.100006 -13.400002,13.700012l0,89c0,6.599976 4.599998,11.899994 10.700005,13.199982l105.400002,21.100006l6.899994,1.200012c7,-0.300018 12.699997,-6.400024 12.699997,-13.5l0,-111.000031c0,-7.699982 -6.199997,-13.699982 -13.599991,-13.699982l0,0z"/>
  <path fill="#ffffff" id="svg_3" d="m416.200012,282.700012l0,147.199982l-2.100006,1.100006l-160.399994,-32l-1,-0.199982l0,-116l163.5,0m2.199982,-16.100006l-168.199997,0c-7.399994,0 -13.399994,6.100006 -13.399994,13.700012l0,120.5l0,0.199982c0,5.5 3.299988,10.100006 7.899994,12.200012c0.199997,0.199982 0.199997,0.199982 0.199997,0.199982l5.300003,1.100006c0.199997,0 0.199997,0 0.300003,0l164.699982,32.899994c0.200012,0.100006 0.5,0.300018 0.700012,0.300018c0.100006,0 0.200012,0 0.299988,-0.100006c0.700012,0.399994 1.400024,0.399994 2.100006,0.399994c7.399994,0 13.600006,-6 13.600006,-13.5l0,-154.200012c0.100006,-7.699982 -6.100006,-13.699982 -13.5,-13.699982l0,0z"/>
  <path fill="#ffffff" id="svg_4" d="m414,81.099998l2.100006,1.099998l0,147.199997l-163.5,0l0,-116l1,-0.199997l160.399994,-32.099998m4.399994,-17.099998c-0.700012,0 -1.399994,0 -2.100006,0.400002c-0.100006,-0.099998 -0.199982,-0.099998 -0.299988,-0.099998c-0.200012,0 -0.5,0.099998 -0.700012,0.299995l-164.799988,32.800003c-0.199997,0 -0.199997,0 -0.300003,0l-5.099991,1.099998c0,0 -0.200012,0 -0.400009,0.200005c-4.599991,2.099998 -7.899994,6.899994 -7.899994,12.399994l0,120.500008c0,7.599991 6,13.699997 13.399994,13.699997l168.199997,0c7.399994,0 13.600006,-6.100006 13.600006,-13.699997l0,-154.100006c0,-7.400002 -6.200012,-13.5 -13.600006,-13.5l0,0z"/>
  <path fill="#ffffff" id="svg_5" d="m199.899994,123.900002l0,105.500008l-104.099991,0l0,-84.600006l103.300003,-20.800003l0.799988,-0.099998m3.100006,-16.900002l-6.899994,1.199997l-105.400009,21.199997c-6.099998,1.300003 -10.699997,6.600006 -10.699997,13.200012l0,89c0,7.600006 6,13.699997 13.400002,13.699997l108.799995,0c7.400009,0 13.600006,-6.099991 13.600006,-13.699997l0,-111.100006c-0.100006,-7.099998 -5.699997,-13.099998 -12.800003,-13.5l0,0z"/>
 </g>
</svg>